<?xml version="1.0" encoding="UTF-8"?>
<svg width="150" height="150" viewBox="0 0 150 150" fill="none" xmlns="http://www.w3.org/2000/svg">
  <!-- Background Circle -->
  <circle cx="75" cy="75" r="75" fill="url(#gradient)"/>
  
  <!-- Person Icon -->
  <path d="M75 45C68.0965 45 62.5 50.5965 62.5 57.5C62.5 64.4035 68.0965 70 75 70C81.9035 70 87.5 64.4035 87.5 57.5C87.5 50.5965 81.9035 45 75 45Z" fill="white" fill-opacity="0.9"/>
  
  <path d="M45 112.5C45 95.4315 58.9315 81.5 76 81.5H74C91.0685 81.5 105 95.4315 105 112.5V120C105 123.314 102.314 126 99 126H51C47.6863 126 45 123.314 45 120V112.5Z" fill="white" fill-opacity="0.9"/>
  
  <defs>
    <linearGradient id="gradient" x1="0%" y1="0%" x2="100%" y2="100%">
      <stop offset="0%" style="stop-color:#c084fc;stop-opacity:1" />
      <stop offset="100%" style="stop-color:#f472b6;stop-opacity:1" />
    </linearGradient>
  </defs>
</svg> 